<?xml version="1.0" encoding="utf-8"?>
<svg version="1.1" xmlns="http://www.w3.org/2000/svg" xmlns:xlink="http://www.w3.org/1999/xlink" x="0px" y="0px"
	 viewBox="0 0 1122 1122" style="enable-background:new 0 0 1122 1122;" xml:space="preserve">
<g id="Background1">
	<circle id="XMLID_1178_" style="fill:#CBE9FF;" cx="553.113" cy="560.027" r="325.512"/>
</g>
<g id="Object">
	<g id="XMLID_517_">
		<path id="XMLID_531_" style="fill:#CE4A37;" d="M402.134,508.975l-32.089,15.988l-48.493-42.621l-56.313,113.656l10.296,2.709
			l47.35-95.893l42.115,39.067l42.874-22.04C405.157,516.458,403.273,512.737,402.134,508.975z"/>
		<path id="XMLID_530_" style="fill:#CE4A37;" d="M889.833,477.738L774.565,587.849l-43.253-38.57l-75.472,81.406l-5.149-13.436
			c-4.059,1.182-8.455,1.921-13.065,2.167l16.323,41.741l78.677-93.164l39.498,40.157l130.627-126.36L889.833,477.738z"/>
		<path id="XMLID_529_" style="fill:#0C3C4F;" d="M576.871,798.971l-5.646,0.393c-17.919,1.247-33.599-12.394-34.846-30.313
			l-7.664-110.174c-1.247-17.918,12.394-33.599,30.313-34.845l5.646-0.393c17.919-1.247,33.599,12.394,34.846,30.313l7.664,110.174
			C608.43,782.044,594.789,797.725,576.871,798.971z"/>
		<path id="XMLID_528_" style="fill:#E1BE98;" d="M651.479,755.456c-3.921-4.363-9.911-5.947-15.591-4.732
			c3.095-5.968,2.566-13.223-1.93-18.227c-3.5-3.895-8.652-5.572-13.759-5.026c2.196-5.604,1.38-12.001-2.7-16.541
			c-0.826-0.919-1.751-1.701-2.738-2.373l3.606-3.059c5.894-5,6.625-13.913,1.625-19.807l-10.133-11.944
			c-5-5.894-13.913-6.625-19.807-1.625l-32.278,27.384c-7.471-5.828-17.412-6.466-23.65-0.995l-45.972,40.319
			c-5.284,4.634-6.488,12.407-3.723,19.561l-18.365,15.998c-4.667,4.066-5.346,10.927-1.509,15.248l67.524,76.021
			c3.838,4.32,10.796,4.528,15.463,0.462l16.996-14.806c2.584,0.611,5.354,0.285,8.743-3.016l76.002-69.344
			C656.441,772.651,657.43,762.078,651.479,755.456z"/>
		
			<rect id="XMLID_527_" x="402.809" y="792.297" transform="matrix(-0.6644 -0.7474 0.7474 -0.6644 152.5297 1763.7821)" style="fill:#116060;" width="138.931" height="110.696"/>
		
			<rect id="XMLID_526_" x="376.288" y="798.017" transform="matrix(-0.6644 -0.7474 0.7474 -0.6644 108.2963 1775.1669)" style="fill:#302E2A;" width="152.852" height="130.502"/>
		<circle id="XMLID_525_" style="fill:#848484;" cx="441.129" cy="799.443" r="6.119"/>
		<circle id="XMLID_524_" style="fill:#848484;" cx="422.771" cy="816.241" r="6.119"/>
		<circle id="XMLID_523_" style="opacity:0.54;fill:#FFF1BA;" cx="556.046" cy="487.625" r="138.976"/>
		<path id="XMLID_522_" style="fill:#CE4A37;" d="M644.759,603.872l-50.984-237.467l-94.836,192.984l-47.937-96.893l-36.299,28.053
			c0.352,7.096,1.266,14.14,2.304,21.172l26.818-21.383l56.818,124.139l87.506-201.851l45.089,205.823
			C635.866,612.708,640.152,608.173,644.759,603.872z"/>
		<g id="XMLID_518_">
			<path id="XMLID_519_" style="fill:#204C3D;" d="M556.269,649.135c-3.414,0-6.838-0.106-10.275-0.321
				c-43.056-2.685-82.489-21.976-111.034-54.319c-28.546-32.344-42.789-73.868-40.104-116.923
				c2.685-43.055,21.976-82.488,54.319-111.034l0,0c32.344-28.546,73.872-42.793,116.923-40.104
				c43.056,2.685,82.489,21.976,111.035,54.319c28.546,32.344,42.788,73.868,40.103,116.923
				c-2.685,43.056-21.976,82.488-54.319,111.034C633.155,634.979,595.617,649.135,556.269,649.135z M466.819,386.529
				c-55.744,49.2-61.068,134.578-11.869,190.322c23.833,27.004,56.756,43.11,92.703,45.352c2.868,0.179,5.731,0.267,8.579,0.267
				c32.855,0.001,64.191-11.818,89.041-33.75c27.004-23.833,43.11-56.756,45.352-92.703c2.242-35.947-9.65-70.615-33.482-97.619
				C607.942,342.654,522.564,337.328,466.819,386.529L466.819,386.529z"/>
		</g>
	</g>
</g>
</svg>